# File generated by ImageToStl.com - Free Image and 3D model conversion tools

mtllib logo.mtl

o obj1
v -14.19535427 2.35690326 11.44105884
v -14.19535427 -2.35690326 11.44105884
v -10.50366629 -2.35690326 7.74937109
v 11.38877644 -2.57344772 -14.14307032
v 11.38877644 2.57476739 -14.14307032
v 4.10903528 2.64606977 -6.8633296
v -3.12028748 -12.94249596 0.36599272
v 0.52004896 -12.94249596 -3.2743435
v 0.52004896 7.72166182 -3.2743435
v -6.863327 2.35690326 4.10903202
v 7.79979012 -2.64606775 -10.55408422
v -3.17164045 7.72166182 0.41734568
v -10.55501641 -7.79428286 7.8007212
v 4.05768516 -12.94249596 -6.81197949
v -6.863327 -12.94249596 4.10903202
v 7.79979012 -7.79428286 -10.55408422
v -17.88704225 -7.72166081 15.1327466
v 18.7721524 -12.94249596 -21.52644584
v -21.52644555 -12.94249596 18.77214967
v 15.02911572 -7.79428286 -17.78340939
v -17.83569071 7.72166182 15.08139506
v 18.7721524 12.94249797 -21.52644584
v -21.52644555 12.94249797 18.77214967
v 15.13181596 7.65036045 -17.88610962
v -7.74937172 -2.35690326 10.50366582
v -11.4410597 -2.35690326 14.19535358
v -11.4410597 2.35690326 14.19535358
v 6.86332985 2.64606977 -4.10903487
v 14.14307101 2.57476739 -11.38877558
v 14.14307101 -2.57344772 -11.38877558
v 3.27434353 7.72166182 -0.52004876
v 3.27434353 -12.94249596 -0.52004876
v -0.36599291 -12.94249596 3.12028746
v -4.10903243 2.35690326 6.86332675
v 10.55408469 -2.64606775 -7.79978948
v -0.41734587 7.72166182 3.17164042
v -7.80072184 -7.79428286 10.55501594
v 6.81197973 -12.94249596 -4.05768475
v -4.10903243 -12.94249596 6.86332675
v 10.55408469 -7.79428286 -7.79978948
v -15.13274768 -7.72166081 17.88704134
v 21.52644697 -12.94249596 -18.7721511
v -18.77215097 -12.94249596 21.52644441
v 17.7834103 -7.79428286 -15.02911465
v -15.08139614 7.72166182 17.8356898
v 21.52644697 12.94249797 -18.7721511
v -18.77215097 12.94249797 21.52644441
v 17.88611053 7.65036045 -15.13181488
v -14.19535427 -2.35690326 11.44105884
v -14.19535427 2.35690326 11.44105884
v -14.24549217 -2.45796164 11.53383908
v -14.24549217 2.45796164 11.53383908
v -14.24535503 -2.54363329 11.65513708
v -14.24535503 2.54363531 11.65513708
v -14.19496197 -2.60087869 11.78648451
v -14.19496197 2.60087869 11.78648451
v -14.10198837 -2.62098197 11.90788845
v -14.10198837 2.62098197 11.90788845
v -11.9078893 -2.62098197 14.10198765
v -11.9078893 2.62098197 14.10198765
v -11.78648536 -2.60087869 14.19496126
v -11.78648536 2.60087869 14.19496126
v -11.65513789 -2.54363329 14.24535437
v -11.65513789 2.54363531 14.24535437
v -11.53383991 -2.45796164 14.2454915
v -11.53383991 2.45796164 14.2454915
v -11.4410597 -2.35690326 14.19535358
v -11.4410597 2.35690326 14.19535358
v -14.19535427 2.35690326 11.44105884
v -6.863327 2.35690326 4.10903202
v -14.24549217 2.45796164 11.53383908
v -6.77054819 2.45796164 4.05889555
v -14.24535503 2.54363531 11.65513708
v -6.64924876 2.54363531 4.05903127
v -14.19496197 2.60087869 11.78648451
v -6.51790134 2.60087869 4.10942434
v -14.10198837 2.62098197 11.90788845
v -6.3964974 2.62098197 4.20239795
v -11.9078893 2.62098197 14.10198765
v -4.20239834 2.62098197 6.39649715
v -11.78648536 2.60087869 14.19496126
v -4.10942473 2.60087869 6.51790109
v -11.65513789 2.54363531 14.24535437
v -4.05903163 2.54363531 6.64924856
v -11.53383991 2.45796164 14.2454915
v -4.05889594 2.45796164 6.77054797
v -11.4410597 2.35690326 14.19535358
v -4.10903243 2.35690326 6.86332675
v -6.863327 2.35690326 4.10903202
v -6.863327 -12.94249596 4.10903202
v -6.77054819 2.45796164 4.05889555
v -6.77054819 -13.04355635 4.05889555
v -6.64924876 2.54363531 4.05903127
v -6.64924876 -13.129228 4.05903127
v -6.51790134 2.60087869 4.10942434
v -6.51790134 -13.18647541 4.10942434
v -6.3964974 2.62098197 4.20239795
v -6.3964974 -13.20657466 4.20239795
v -4.20239834 2.62098197 6.39649715
v -4.20239834 -13.20657466 6.39649715
v -4.10942473 2.60087869 6.51790109
v -4.10942473 -13.18647541 6.51790109
v -4.05903163 2.54363531 6.64924856
v -4.05903163 -13.129228 6.64924856
v -4.05889594 2.45796164 6.77054797
v -4.05889594 -13.04355635 6.77054797
v -4.10903243 2.35690326 6.86332675
v -4.10903243 -12.94249596 6.86332675
v -6.863327 -12.94249596 4.10903202
v -21.52644555 -12.94249596 18.77214967
v -6.77054819 -13.04355635 4.05889555
v -21.57658344 -13.04355635 18.86492991
v -6.64924876 -13.129228 4.05903127
v -21.5764463 -13.129228 18.98622791
v -6.51790134 -13.18647541 4.10942434
v -21.52605467 -13.18647541 19.11757676
v -6.3964974 -13.20657466 4.20239795
v -21.43307964 -13.20657466 19.23897928
v -4.20239834 -13.20657466 6.39649715
v -19.23898057 -13.20657466 21.43307848
v -4.10942473 -13.18647541 6.51790109
v -19.11757806 -13.18647541 21.52605351
v -4.05903163 -13.129228 6.64924856
v -18.98622917 -13.129228 21.5764452
v -4.05889594 -13.04355635 6.77054797
v -18.86493119 -13.04355635 21.57658233
v -4.10903243 -12.94249596 6.86332675
v -18.77215097 -12.94249596 21.52644441
v -21.52644555 -12.94249596 18.77214967
v -21.52644555 12.94249797 18.77214967
v -21.57658344 -13.04355635 18.86492991
v -21.57658344 13.04355635 18.86492991
v -21.5764463 -13.129228 18.98622791
v -21.5764463 13.12922901 18.98622791
v -21.52605467 -13.18647541 19.11757676
v -21.52605467 13.1864744 19.11757676
v -21.43307964 -13.20657466 19.23897928
v -21.43307964 13.20657668 19.23897928
v -19.23898057 -13.20657466 21.43307848
v -19.23898057 13.20657668 21.43307848
v -19.11757806 -13.18647541 21.52605351
v -19.11757806 13.1864744 21.52605351
v -18.98622917 -13.129228 21.5764452
v -18.98622917 13.12922901 21.5764452
v -18.86493119 -13.04355635 21.57658233
v -18.86493119 13.04355635 21.57658233
v -18.77215097 -12.94249596 21.52644441
v -18.77215097 12.94249797 21.52644441
v -21.52644555 12.94249797 18.77214967
v 18.7721524 12.94249797 -21.52644584
v -21.57658344 13.04355635 18.86492991
v 18.86493406 13.04355635 -21.57658515
v -21.5764463 13.12922901 18.98622791
v 18.98623349 13.12922901 -21.57644943
v -21.52605467 13.1864744 19.11757676
v 19.11758091 13.1864744 -21.52605636
v -21.43307964 13.20657668 19.23897928
v 19.238982 13.20657668 -21.4330799
v -19.23898057 13.20657668 21.43307848
v 21.43308106 13.20657668 -19.2389807
v -19.11757806 13.1864744 21.52605351
v 21.52605752 13.1864744 -19.11757961
v -18.98622917 13.12922901 21.5764452
v 21.57645062 13.12922901 -18.98623214
v -18.86493119 13.04355635 21.57658233
v 21.57658632 13.04355635 -18.86493273
v -18.77215097 12.94249797 21.52644441
v 21.52644697 12.94249797 -18.7721511
v 18.7721524 12.94249797 -21.52644584
v 18.7721524 -12.94249596 -21.52644584
v 18.86493406 13.04355635 -21.57658515
v 18.86493406 -13.04355635 -21.57658515
v 18.98623349 13.12922901 -21.57644943
v 18.98623349 -13.129228 -21.57644943
v 19.11758091 13.1864744 -21.52605636
v 19.11758091 -13.18647541 -21.52605636
v 19.238982 13.20657668 -21.4330799
v 19.238982 -13.20657466 -21.4330799
v 21.43308106 13.20657668 -19.2389807
v 21.43308106 -13.20657466 -19.2389807
v 21.52605752 13.1864744 -19.11757961
v 21.52605752 -13.18647541 -19.11757961
v 21.57645062 13.12922901 -18.98623214
v 21.57645062 -13.129228 -18.98623214
v 21.57658632 13.04355635 -18.86493273
v 21.57658632 -13.04355635 -18.86493273
v 21.52644697 12.94249797 -18.7721511
v 21.52644697 -12.94249596 -18.7721511
v 18.7721524 -12.94249596 -21.52644584
v 4.05768516 -12.94249596 -6.81197949
v 18.86493406 -13.04355635 -21.57658515
v 4.00738058 -13.04331861 -6.71903257
v 18.98623349 -13.129228 -21.57644943
v 4.00737668 -13.12879281 -6.59759353
v 19.11758091 -13.18647541 -21.52605636
v 4.05767286 -13.18590322 -6.46614923
v 19.238982 -13.20657466 -21.4330799
v 4.15061513 -13.20595814 -6.34471394
v 21.43308106 -13.20657466 -19.2389807
v 6.34471419 -13.20595814 -4.15061474
v 21.52605752 -13.18647541 -19.11757961
v 6.46614947 -13.18590322 -4.05767247
v 21.57645062 -13.129228 -18.98623214
v 6.59759382 -13.12879281 -4.00737624
v 21.57658632 -13.04355635 -18.86493273
v 6.71903284 -13.04331861 -4.00738015
v 21.52644697 -12.94249596 -18.7721511
v 6.81197973 -12.94249596 -4.05768475
v 4.05768516 -12.94249596 -6.81197949
v 4.10903528 2.64606977 -6.8633296
v 4.00738058 -13.04331861 -6.71903257
v 4.05931196 2.74771041 -6.77096395
v 4.00737668 -13.12879281 -6.59759353
v 4.05980099 2.83387971 -6.65001783
v 4.05767286 -13.18590322 -6.46614923
v 4.11042769 2.89145552 -6.51890405
v 4.15061513 -13.20595814 -6.34471394
v 4.20348677 2.91167365 -6.39758558
v 6.34471419 -13.20595814 -4.15061474
v 6.39758584 2.91167365 -4.20348638
v 6.46614947 -13.18590322 -4.05767247
v 6.5189043 2.89145552 -4.11042729
v 6.59759382 -13.12879281 -4.00737624
v 6.65001812 2.83387971 -4.05980054
v 6.71903284 -13.04331861 -4.00738015
v 6.77096421 2.74771041 -4.05931153
v 6.81197973 -12.94249596 -4.05768475
v 6.86332985 2.64606977 -4.10903487
v 4.10903528 2.64606977 -6.8633296
v 11.38877644 2.57476739 -14.14307032
v 4.05931196 2.74771041 -6.77096395
v 11.4815581 2.67512866 -14.19320964
v 4.05980099 2.83387971 -6.65001783
v 11.60285468 2.76020999 -14.19307106
v 4.11042769 2.89145552 -6.51890405
v 11.7342021 2.81706049 -14.142678
v 4.20348677 2.91167365 -6.39758558
v 11.85560604 2.83702274 -14.04970439
v 6.39758584 2.91167365 -4.20348638
v 14.0497051 2.83702274 -11.85560519
v 6.5189043 2.89145552 -4.11042729
v 14.14267871 2.81706049 -11.73420124
v 6.65001812 2.83387971 -4.05980054
v 14.19307181 2.76020999 -11.60285377
v 6.77096421 2.74771041 -4.05931153
v 14.19321035 2.67512866 -11.48155722
v 6.86332985 2.64606977 -4.10903487
v 14.14307101 2.57476739 -11.38877558
v 11.38877644 2.57476739 -14.14307032
v 11.38877644 -2.57344772 -14.14307032
v 11.4815581 2.67512866 -14.19320964
v 11.4815581 -2.67306957 -14.19320964
v 11.60285468 2.76020999 -14.19307106
v 11.60285468 -2.75752633 -14.19307106
v 11.7342021 2.81706049 -14.142678
v 11.7342021 -2.81395776 -14.142678
v 11.85560604 2.83702274 -14.04970439
v 11.85560604 -2.83377494 -14.04970439
v 14.0497051 2.83702274 -11.85560519
v 14.0497051 -2.83377494 -11.85560519
v 14.14267871 2.81706049 -11.73420124
v 14.14267871 -2.81395776 -11.73420124
v 14.19307181 2.76020999 -11.60285377
v 14.19307181 -2.75752633 -11.60285377
v 14.19321035 2.67512866 -11.48155722
v 14.19321035 -2.67306957 -11.48155722
v 14.14307101 2.57476739 -11.38877558
v 14.14307101 -2.57344772 -11.38877558
v 11.38877644 -2.57344772 -14.14307032
v 7.79979012 -2.64606775 -10.55408422
v 11.4815581 -2.67306957 -14.19320964
v 7.89257177 -2.74569162 -10.60422353
v 11.60285468 -2.75752633 -14.19307106
v 8.01386835 -2.83014837 -10.60408496
v 11.7342021 -2.81395776 -14.142678
v 8.14521578 -2.8865798 -10.55369189
v 11.85560604 -2.83377494 -14.04970439
v 8.26661972 -2.90639497 -10.46071828
v 14.0497051 -2.83377494 -11.85560519
v 10.46071878 -2.90639497 -8.26661908
v 14.14267871 -2.81395776 -11.73420124
v 10.55369238 -2.8865798 -8.14521514
v 14.19307181 -2.75752633 -11.60285377
v 10.60408549 -2.83014837 -8.01386767
v 14.19321035 -2.67306957 -11.48155722
v 10.60422403 -2.74569162 -7.89257111
v 14.14307101 -2.57344772 -11.38877558
v 10.55408469 -2.64606775 -7.79978948
v 7.79979012 -2.64606775 -10.55408422
v 7.79979012 -7.79428286 -10.55408422
v 7.89257177 -2.74569162 -10.60422353
v 7.89257177 -7.69322448 -10.60422353
v 8.01386835 -2.83014837 -10.60408496
v 8.01386835 -7.60755082 -10.60408496
v 8.14521578 -2.8865798 -10.55369189
v 8.14521578 -7.55030542 -10.55369189
v 8.26661972 -2.90639497 -10.46071828
v 8.26661972 -7.53020415 -10.46071828
v 10.46071878 -2.90639497 -8.26661908
v 10.46071878 -7.53020415 -8.26661908
v 10.55369238 -2.8865798 -8.14521514
v 10.55369238 -7.55030542 -8.14521514
v 10.60408549 -2.83014837 -8.01386767
v 10.60408549 -7.60755082 -8.01386767
v 10.60422403 -2.74569162 -7.89257111
v 10.60422403 -7.69322448 -7.89257111
v 10.55408469 -2.64606775 -7.79978948
v 10.55408469 -7.79428286 -7.79978948
v 7.79979012 -7.79428286 -10.55408422
v 15.02911572 -7.79428286 -17.78340939
v 7.89257177 -7.69322448 -10.60422353
v 14.97964314 -7.69322448 -17.69129447
v 8.01386835 -7.60755082 -10.60408496
v 14.98034872 -7.60755082 -17.5705649
v 8.14521578 -7.55030542 -10.55369189
v 15.03111788 -7.55030542 -17.43959358
v 8.26661972 -7.53020415 -10.46071828
v 15.1242254 -7.53020415 -17.31832356
v 10.46071878 -7.53020415 -8.26661908
v 17.31832447 -7.53020415 -15.12422436
v 10.55369238 -7.55030542 -8.14521514
v 17.43959449 -7.55030542 -15.03111683
v 10.60408549 -7.60755082 -8.01386767
v 17.57056585 -7.60755082 -14.98034761
v 10.60422403 -7.69322448 -7.89257111
v 17.6912954 -7.69322448 -14.97964205
v 10.55408469 -7.79428286 -7.79978948
v 17.7834103 -7.79428286 -15.02911465
v 15.02911572 -7.79428286 -17.78340939
v 15.13181596 7.65036045 -17.88610962
v 14.97964314 -7.69322448 -17.69129447
v 15.08122075 7.54995385 -17.79287207
v 14.98034872 -7.60755082 -17.5705649
v 15.08096896 7.46483222 -17.67118514
v 15.03111788 -7.55030542 -17.43959358
v 15.13109988 7.40795654 -17.53957558
v 15.1242254 -7.53020415 -17.31832356
v 15.22398516 7.38798422 -17.41808331
v 17.31832447 -7.53020415 -15.12422436
v 17.41808423 7.38798422 -15.22398411
v 17.43959449 -7.55030542 -15.03111683
v 17.53957649 7.40795654 -15.13109883
v 17.57056585 -7.60755082 -14.98034761
v 17.6711861 7.46483222 -15.08096785
v 17.6912954 -7.69322448 -14.97964205
v 17.79287301 7.54995385 -15.08121965
v 17.7834103 -7.79428286 -15.02911465
v 17.88611053 7.65036045 -15.13181488
v 15.13181596 7.65036045 -17.88610962
v 0.52004896 7.72166182 -3.2743435
v 15.08122075 7.54995385 -17.79287207
v 0.61270525 7.62042917 -3.32435745
v 15.08096896 7.46483222 -17.67118514
v 0.73389925 7.53460741 -3.3241163
v 15.13109988 7.40795654 -17.53957558
v 0.86517829 7.4772643 -3.27365485
v 15.22398516 7.38798422 -17.41808331
v 0.98655659 7.45712778 -3.18065559
v 17.41808423 7.38798422 -15.22398411
v 3.18065565 7.45712778 -0.9865564
v 17.53957649 7.40795654 -15.13109883
v 3.2736549 7.4772643 -0.8651781
v 17.6711861 7.46483222 -15.08096785
v 3.32411639 7.53460741 -0.73389901
v 17.79287301 7.54995385 -15.08121965
v 3.32435751 7.62042917 -0.61270503
v 17.88611053 7.65036045 -15.13181488
v 3.27434353 7.72166182 -0.52004876
v 0.52004896 7.72166182 -3.2743435
v 0.52004896 -12.94249596 -3.2743435
v 0.61270525 7.62042917 -3.32435745
v 0.61283062 -13.04355635 -3.32448282
v 0.73389925 7.53460741 -3.3241163
v 0.7341272 -13.129228 -3.32434424
v 0.86517829 7.4772643 -3.27365485
v 0.86547747 -13.18647541 -3.27395403
v 0.98655659 7.45712778 -3.18065559
v 0.98687856 -13.20657466 -3.18097757
v 3.18065565 7.45712778 -0.9865564
v 3.18097763 -13.20657466 -0.98687837
v 3.2736549 7.4772643 -0.8651781
v 3.27395408 -13.18647541 -0.86547727
v 3.32411639 7.53460741 -0.73389901
v 3.32434433 -13.129228 -0.73412695
v 3.32435751 7.62042917 -0.61270503
v 3.32448288 -13.04355635 -0.6128304
v 3.27434353 7.72166182 -0.52004876
v 3.27434353 -12.94249596 -0.52004876
v 0.52004896 -12.94249596 -3.2743435
v -3.12028748 -12.94249596 0.36599272
v 0.61283062 -13.04355635 -3.32448282
v -3.17017606 -13.04355635 0.45852364
v 0.7341272 -13.129228 -3.32434424
v -3.16982665 -13.129228 0.57960937
v 0.86547747 -13.18647541 -3.27395403
v -3.11929112 -13.18647541 0.71081433
v 0.98687856 -13.20657466 -3.18097757
v -3.02626623 -13.20657466 0.83216698
v 3.18097763 -13.20657466 -0.98687837
v -0.83216717 -13.20657466 3.02626618
v 3.27395408 -13.18647541 -0.86547727
v -0.71081452 -13.18647541 3.11929108
v 3.32434433 -13.129228 -0.73412695
v -0.57960951 -13.129228 3.16982666
v 3.32448288 -13.04355635 -0.6128304
v -0.45852381 -13.04355635 3.17017606
v 3.27434353 -12.94249596 -0.52004876
v -0.36599291 -12.94249596 3.12028746
v -3.12028748 -12.94249596 0.36599272
v -3.17164045 7.72166182 0.41734568
v -3.17017606 -13.04355635 0.45852364
v -3.22152618 7.62060344 0.50987375
v -3.16982665 -13.129228 0.57960937
v -3.22117677 7.53492978 0.63095948
v -3.11929112 -13.18647541 0.71081433
v -3.17064409 7.47768438 0.76216729
v -3.02626623 -13.20657466 0.83216698
v -3.0776192 7.45758311 0.88351995
v -0.83216717 -13.20657466 3.02626618
v -0.88352013 7.45758311 3.07761915
v -0.71081452 -13.18647541 3.11929108
v -0.76216748 7.47768438 3.17064405
v -0.57960951 -13.129228 3.16982666
v -0.63095963 7.53492978 3.22117677
v -0.45852381 -13.04355635 3.17017606
v -0.50987392 7.62060344 3.22152617
v -0.36599291 -12.94249596 3.12028746
v -0.41734587 7.72166182 3.17164042
v -3.17164045 7.72166182 0.41734568
v -17.83569071 7.72166182 15.08139506
v -3.22152618 7.62060344 0.50987375
v -17.74324669 7.62060344 15.03159339
v -3.22117677 7.53492978 0.63095948
v -17.6222322 7.53492978 15.03201404
v -3.17064409 7.47768438 0.76216729
v -17.49107425 7.47768438 15.08259659
v -3.0776192 7.45758311 0.88351995
v -17.36973727 7.45758311 15.17563716
v -0.88352013 7.45758311 3.07761915
v -15.17563821 7.45758311 17.36973636
v -0.76216748 7.47768438 3.17064405
v -15.08259764 7.47768438 17.49107334
v -0.63095963 7.53492978 3.22117677
v -15.03201506 7.53492978 17.62223133
v -0.50987392 7.62060344 3.22152617
v -15.03159444 7.62060344 17.74324581
v -0.41734587 7.72166182 3.17164042
v -15.08139614 7.72166182 17.8356898
v -17.83569071 7.72166182 15.08139506
v -17.88704225 -7.72166081 15.1327466
v -17.74324669 7.62060344 15.03159339
v -17.79392723 -7.62131163 15.08227392
v -17.6222322 7.53492978 15.03201404
v -17.67234572 -7.53623836 15.08212756
v -17.49107425 7.47768438 15.08259659
v -17.54080881 -7.47939592 15.13233115
v -17.36973727 7.45758311 15.17563716
v -17.41933934 -7.45943367 15.22523923
v -15.17563821 7.45758311 17.36973636
v -15.22524028 -7.45943367 17.41933842
v -15.08259764 7.47768438 17.49107334
v -15.13233221 -7.47939592 17.5408079
v -15.03201506 7.53492978 17.62223133
v -15.08212858 -7.53623836 17.67234485
v -15.03159444 7.62060344 17.74324581
v -15.08227497 -7.62131163 17.79392634
v -15.08139614 7.72166182 17.8356898
v -15.13274768 -7.72166081 17.88704134
v -17.88704225 -7.72166081 15.1327466
v -10.55501641 -7.79428286 7.8007212
v -17.79392723 -7.62131163 15.08227392
v -10.60419837 -7.69252335 7.89254549
v -17.67234572 -7.53623836 15.08212756
v -10.60325345 -7.60625532 8.01303572
v -17.54080881 -7.47939592 15.13233115
v -10.55231902 -7.54861504 8.14384178
v -17.41933934 -7.45943367 15.22523923
v -10.45915451 -7.52837274 8.26505482
v -15.22524028 -7.45943367 17.41933842
v -8.26505545 -7.52837274 10.45915402
v -15.13233221 -7.47939592 17.5408079
v -8.14384241 -7.54861504 10.55231853
v -15.08212858 -7.53623836 17.67234485
v -8.01303631 -7.60625532 10.60325301
v -15.08227497 -7.62131163 17.79392634
v -7.89254611 -7.69252335 10.60419791
v -15.13274768 -7.72166081 17.88704134
v -7.80072184 -7.79428286 10.55501594
v -10.55501641 -7.79428286 7.8007212
v -10.50366629 -2.35690326 7.74937109
v -10.60419837 -7.69252335 7.89254549
v -10.5542786 -2.45728468 7.84262573
v -10.60325345 -7.60625532 8.01303572
v -10.55454463 -2.54238213 7.96432691
v -10.55231902 -7.54861504 8.14384178
v -10.50442226 -2.59924472 8.09594502
v -10.45915451 -7.52837274 8.26505482
v -10.41154268 -2.61921099 8.21744299
v -8.26505545 -7.52837274 10.45915402
v -8.21744361 -2.61921099 10.41154218
v -8.14384241 -7.54861504 10.55231853
v -8.09594565 -2.59924472 10.50442177
v -8.01303631 -7.60625532 10.60325301
v -7.9643275 -2.54238213 10.5545442
v -7.89254611 -7.69252335 10.60419791
v -7.84262634 -2.45728468 10.55427815
v -7.80072184 -7.79428286 10.55501594
v -7.74937172 -2.35690326 10.50366582
v -10.50366629 -2.35690326 7.74937109
v -14.19535427 -2.35690326 11.44105884
v -10.5542786 -2.45728468 7.84262573
v -14.24549217 -2.45796164 11.53383908
v -10.55454463 -2.54238213 7.96432691
v -14.24535503 -2.54363329 11.65513708
v -10.50442226 -2.59924472 8.09594502
v -14.19496197 -2.60087869 11.78648451
v -10.41154268 -2.61921099 8.21744299
v -14.10198837 -2.62098197 11.90788845
v -8.21744361 -2.61921099 10.41154218
v -11.9078893 -2.62098197 14.10198765
v -8.09594565 -2.59924472 10.50442177
v -11.78648536 -2.60087869 14.19496126
v -7.9643275 -2.54238213 10.5545442
v -11.65513789 -2.54363329 14.24535437
v -7.84262634 -2.45728468 10.55427815
v -11.53383991 -2.45796164 14.2454915
v -7.74937172 -2.35690326 10.50366582
v -11.4410597 -2.35690326 14.19535358
vn 0 0 -1
vn -0 0 1
vn -0.28591 0 -0.95826
vn -0.70791 0 -0.70631
vn -0.91347 0 -0.4069
vn -0.99132 0 -0.13147
vn -1 0 0
vn -0.99132 0 0.13147
vn -0.91347 0 0.4069
vn -0.91347 0 0.4069
vn -0.70791 0 0.70631
vn -0.70791 0 0.70631
vn -0.28591 0 0.95826
vn -0.28591 0 0.95826
vn -0 -0.28591 -0.95826
vn -0 -0.28591 -0.95826
vn -0 -0.70791 -0.70631
vn -0 -0.70791 -0.70631
vn -0 -0.91347 -0.4069
vn -0 -0.91347 -0.4069
vn -0 -0.99132 -0.13147
vn 0 -1 0
vn 0 -0.99132 0.13147
vn 0 -0.91347 0.4069
vn 0 -0.91347 0.4069
vn 0 -0.70791 0.70631
vn 0 -0.70791 0.70631
vn 0 -0.28591 0.95826
vn 0.28592 0 -0.95825
vn 0.7079 0 -0.70632
vn 0.7079 0 -0.70632
vn 0.91347 0 -0.4069
vn 0.99132 0 -0.13147
vn 0.99132 0 -0.13147
vn 1 0 0
vn 0.99132 0 0.13147
vn 0.99132 0 0.13147
vn 0.91347 0 0.4069
vn 0.7079 0 0.70632
vn 0.28592 0 0.95825
vn 0.28592 0 0.95825
vn 0 0.28591 -0.95826
vn 0 0.28591 -0.95826
vn 0 0.70791 -0.7063
vn 0 0.91346 -0.40692
vn 0 0.91346 -0.40692
vn 0 0.99132 -0.13144
vn 0 0.99132 -0.13144
vn 0 1 0
vn -0 0.99132 0.13144
vn -0 0.99132 0.13144
vn -0 0.91346 0.40692
vn -0 0.70791 0.7063
vn -0 0.28591 0.95826
vn -0.28591 0 -0.95826
vn -0.70791 0 -0.70631
vn -0.91347 0 -0.40691
vn -0.99132 0 -0.13145
vn -0.99132 0 -0.13145
vn -0.99132 0 0.13145
vn -0.99132 0 0.13145
vn -0.91347 0 0.40691
vn -0.91347 0 0.40691
vn -0.70791 0 0.70631
vn -0 -0.70791 -0.7063
vn -0 -0.70791 -0.7063
vn -0 -0.91347 -0.40691
vn -0 -0.99132 -0.13146
vn -0 -0.99132 -0.13146
vn 0 -0.99132 0.13146
vn 0 -0.99132 0.13146
vn 0 -0.91347 0.40691
vn 0 -0.70791 0.7063
vn 0.28591 0 -0.95826
vn 0.7079 0 -0.70632
vn 0.99132 0 -0.13144
vn 0.99132 0 -0.13144
vn 0.99132 0 0.13144
vn 0.99132 0 0.13144
vn 0.7079 0 0.70632
vn 0.28591 0 0.95826
vn -0 0.28652 -0.95807
vn -1E-05 0.70792 -0.70629
vn -1E-05 0.70872 -0.70549
vn -2E-05 0.91347 -0.40691
vn -2E-05 0.91382 -0.40612
vn -3E-05 0.99132 -0.13144
vn -3E-05 0.99136 -0.13116
vn -3E-05 1 0
vn -3E-05 0.99132 0.13144
vn -3E-05 0.99136 0.13116
vn -2E-05 0.91347 0.40691
vn -2E-05 0.91382 0.40611
vn -1E-05 0.70792 0.70629
vn -1E-05 0.70872 0.70549
vn -0 0.28591 0.95826
vn -0 0.28653 0.95807
vn -0.28652 -0.00133 -0.95807
vn -0.28621 -0.00133 -0.95817
vn -0.70872 -0.0033 -0.70548
vn -0.7083 -0.00329 -0.7059
vn -0.9138 -0.00424 -0.40613
vn -0.91363 -0.00424 -0.40652
vn -0.99135 -0.0046 -0.13115
vn -0.99133 -0.0046 -0.13129
vn -0.99999 -0.00464 0
vn -0.99135 -0.0046 0.13115
vn -0.99133 -0.0046 0.13129
vn -0.9138 -0.00424 0.40613
vn -0.91363 -0.00424 0.40652
vn -0.70872 -0.00329 0.70549
vn -0.7083 -0.00329 0.7059
vn -0.28652 -0.00133 0.95807
vn -0.28621 -0.00133 0.95817
vn 0.00198 -0.28621 -0.95817
vn 0.00198 -0.28591 -0.95825
vn 0.0049 -0.70828 -0.70591
vn 0.00489 -0.7079 -0.7063
vn 0.00631 -0.91362 -0.40653
vn 0.0063 -0.91345 -0.4069
vn 0.00684 -0.99132 -0.13132
vn 0.00684 -0.9913 -0.13145
vn 0.0069 -0.99998 0
vn 0.00684 -0.99132 0.13132
vn 0.00684 -0.9913 0.13145
vn 0.0063 -0.91362 0.40653
vn 0.00631 -0.91345 0.4069
vn 0.00489 -0.70828 0.70592
vn 0.00489 -0.7079 0.7063
vn 0.00198 -0.28621 0.95817
vn 0.00198 -0.28591 0.95826
vn 0.28591 0 -0.95826
vn 0.70791 0 -0.7063
vn 0.91347 0 -0.4069
vn 0.91347 0 0.4069
vn 0.91347 0 0.4069
vn 0.70791 0 0.7063
vn 0.00409 0.28589 -0.95825
vn 0.00409 0.28588 -0.95826
vn 0.01013 0.70783 -0.70631
vn 0.01307 0.91338 -0.4069
vn 0.01418 0.99122 -0.13146
vn 0.01418 0.99122 -0.13145
vn 0.01431 0.9999 0
vn 0.01418 0.99122 0.13146
vn 0.01418 0.99122 0.13145
vn 0.01307 0.91338 0.4069
vn 0.01013 0.70783 0.70631
vn 0.00409 0.28589 0.95825
vn 0.00409 0.28588 0.95826
vn 0.99132 0 -0.13147
vn 0.99132 0 0.13147
vn -0 -0.91347 -0.40691
vn -0 -0.99132 -0.13145
vn -0 -0.99132 -0.13145
vn 0 -0.99132 0.13145
vn 0 -0.99132 0.13145
vn 0 -0.91347 0.40691
vn 0 -0.28591 0.95826
vn -0.28589 -0.00269 -0.95826
vn -0.28669 -0.0027 -0.95802
vn -0.70788 -0.00667 -0.70631
vn -0.70894 -0.00669 -0.70524
vn -0.91342 -0.00862 -0.40693
vn -0.91388 -0.00864 -0.40589
vn -0.99128 -0.00937 -0.13147
vn -0.99133 -0.00938 -0.13105
vn -0.99996 -0.00946 0
vn -0.99128 -0.00937 0.13147
vn -0.99133 -0.00937 0.13105
vn -0.91342 -0.00863 0.40694
vn -0.91388 -0.00863 0.4059
vn -0.70787 -0.00668 0.70631
vn -0.70893 -0.00668 0.70525
vn -0.28588 -0.00269 0.95826
vn -0.28669 -0.0027 0.95802
vn -0.00099 0.2867 -0.95802
vn -0.00099 0.28636 -0.95812
vn -0.00244 0.70896 -0.70525
vn -0.00244 0.70851 -0.7057
vn -0.00314 0.91392 -0.40589
vn -0.00314 0.91372 -0.40632
vn -0.00341 0.99137 -0.13107
vn -0.0034 0.99135 -0.13124
vn -0.00343 0.99999 0
vn -0.0034 0.99137 0.13107
vn -0.00341 0.99135 0.13124
vn -0.00314 0.91392 0.40589
vn -0.00314 0.91373 0.40632
vn -0.00244 0.70896 0.70525
vn -0.00244 0.70851 0.7057
vn -0.00099 0.2867 0.95802
vn -0.00099 0.28637 0.95812
vn 0.28637 0 -0.95812
vn 0.28591 -0 -0.95826
vn 0.70852 -1E-05 -0.7057
vn 0.70792 -1E-05 -0.70629
vn 0.91373 -1E-05 -0.40632
vn 0.91347 -2E-05 -0.40691
vn 0.99135 -2E-05 -0.13123
vn 0.99132 -2E-05 -0.13144
vn 1 -2E-05 0
vn 0.99135 -2E-05 0.13123
vn 0.99132 -2E-05 0.13144
vn 0.91373 -2E-05 0.40632
vn 0.91347 -1E-05 0.40692
vn 0.70852 -1E-05 0.70569
vn 0.70792 -1E-05 0.7063
vn 0.28637 -0 0.95812
vn 0 0.91346 -0.40692
vn -0 0.91346 0.40692
vn -0.28591 0.001 -0.95826
vn -0.28592 0.001 -0.95825
vn -0.7079 0.00249 -0.70631
vn -0.7079 0.00249 -0.70631
vn -0.91347 0.00321 -0.40689
vn -0.91346 0.00321 -0.40692
vn -0.99132 0.00348 -0.13145
vn -0.99132 0.00348 -0.13145
vn -0.99999 0.00351 0
vn -0.99132 0.00348 0.13145
vn -0.99132 0.00348 0.13145
vn -0.91347 0.00321 0.40689
vn -0.91346 0.00321 0.40692
vn -0.7079 0.00249 0.70631
vn -0.7079 0.00249 0.70631
vn -0.28591 0.001 0.95826
vn -0.28592 0.001 0.95825
vn 0 0.28591 -0.95826
vn 0 0.28591 -0.95826
vn 0 0.70791 -0.70631
vn 0 0.70791 -0.70631
vn 0 0.91347 -0.40691
vn 0 0.99132 -0.13145
vn -0 0.99132 0.13145
vn -0 0.91347 0.40691
vn -0 0.70791 0.70631
vn -0 0.70791 0.70631
vn -0 0.28591 0.95826
vn -0 0.28591 0.95826
vn 0.28591 0.00134 -0.95825
vn 0.28591 0.00134 -0.95826
vn 0.70789 0.00333 -0.70631
vn 0.7079 0.00333 -0.70631
vn 0.91346 0.0043 -0.4069
vn 0.91346 0.0043 -0.4069
vn 0.99131 0.00466 -0.13146
vn 0.99131 0.00466 -0.13146
vn 0.99999 0.0047 0
vn 0.99131 0.00466 0.13146
vn 0.99131 0.00466 0.13146
vn 0.91346 0.0043 0.4069
vn 0.91346 0.0043 0.4069
vn 0.70789 0.00333 0.70631
vn 0.7079 0.00333 0.70631
vn 0.28591 0.00134 0.95825
vn 0.28591 0.00134 0.95826
vn 0.002 -0.28591 -0.95825
vn 0.002 -0.28591 -0.95826
vn 0.00496 -0.70789 -0.70631
vn 0.00496 -0.70789 -0.70631
vn 0.0064 -0.91345 -0.4069
vn 0.0064 -0.91345 -0.4069
vn 0.00694 -0.9913 -0.13147
vn 0.00694 -0.9913 -0.13146
vn 0.007 -0.99998 0
vn 0.00694 -0.9913 0.13147
vn 0.00694 -0.9913 0.13146
vn 0.0064 -0.91345 0.4069
vn 0.0064 -0.91345 0.4069
vn 0.00496 -0.70789 0.70631
vn 0.00496 -0.70789 0.70631
vn 0.002 -0.28591 0.95825
vn 0.002 -0.28591 0.95826
vn -0.28589 -0.00382 -0.95825
vn -0.2877 -0.00388 -0.95771
vn -0.70779 -0.00954 -0.70636
vn -0.7103 -0.00966 -0.70383
vn -0.91335 -0.01242 -0.40698
vn -0.91445 -0.01251 -0.40452
vn -0.99122 -0.01357 -0.1315
vn -0.99135 -0.0136 -0.13055
vn -0.99991 -0.01371 0
vn -0.99122 -0.0136 0.1315
vn -0.99135 -0.01357 0.13055
vn -0.91334 -0.0125 0.407
vn -0.91443 -0.01244 0.40454
vn -0.70774 -0.00963 0.7064
vn -0.71026 -0.00958 0.70388
vn -0.28586 -0.00385 0.95826
vn -0.28766 -0.00384 0.95772
vn 0 0.28768 -0.95773
vn 4E-05 0.28595 -0.95825
vn 9E-05 0.71033 -0.70387
vn 0.00017 0.708 -0.70621
vn 0.00022 0.91451 -0.40455
vn 0.00029 0.91352 -0.4068
vn 0.00031 0.99144 -0.13055
vn 0.00034 0.99133 -0.13142
vn 0.00034 1 0
vn 0.00034 0.99144 0.13054
vn 0.00031 0.99133 0.13143
vn 0.00029 0.91453 0.40453
vn 0.00022 0.9135 0.40683
vn 0.00017 0.71037 0.70383
vn 9E-05 0.70796 0.70625
vn 4E-05 0.28772 0.95772
vt 235.75999 -158.37
vt 235.75999 -194.07001
vt 275.29999 -194.07001
vt 509.78 -195.71001
vt 509.78 -156.72
vt 431.81 -156.17999
vt 354.38 -274.23999
vt 393.37 -274.23999
vt 393.37 -117.74
vt 314.29001 -158.37
vt 471.34 -196.25999
vt 353.82999 -117.74
vt 274.75 -235.25
vt 431.26001 -274.23999
vt 314.29001 -274.23999
vt 471.34 -235.25
vt 196.22 -234.7
vt 588.85999 -274.23999
vt 157.24001 -274.23999
vt 548.77002 -235.25
vt 196.77 -117.74
vt 588.85999 -78.2
vt 157.24001 -78.2
vt 549.87 -118.28
vt 195.07001 -3
vt 159.37 -3
vt 195.83537 -2.77164
vt 158.60463 -2.77164
vt 196.48421 -2.12132
vt 157.95578 -2.12132
vt 196.91776 -1.14805
vt 157.52225 -1.14805
vt 197.07001 0
vt 157.37 0
vt 197.07001 23.5
vt 157.37 23.5
vt 196.91776 24.64805
vt 157.52225 24.64805
vt 196.48421 25.62132
vt 157.95578 25.62132
vt 195.83537 26.27164
vt 158.60463 26.27164
vt 195.07001 26.5
vt 159.37 26.5
vt 235.75999 -3
vt 314.29001 -3
vt 234.99463 -2.77164
vt 315.05536 -2.77164
vt 234.34578 -2.12132
vt 315.70422 -2.12132
vt 233.91225 -1.14805
vt 316.13776 -1.14805
vt 233.75999 0
vt 316.29001 0
vt 233.75999 23.5
vt 316.29001 23.5
vt 233.91225 24.64805
vt 316.13776 24.64805
vt 234.34578 25.62132
vt 315.70422 25.62132
vt 234.99463 26.27164
vt 315.05536 26.27164
vt 235.75999 26.5
vt 314.29001 26.5
vt 275.23999 -3
vt 276.00537 -2.77164
vt 276.65421 -2.12132
vt 277.08777 -1.14805
vt 277.23999 0
vt 277.23999 23.5
vt 277.08777 24.64805
vt 276.65421 25.62132
vt 276.00537 26.27164
vt 275.23999 26.5
vt 157.24001 -3
vt 156.47464 -2.77164
vt 155.82579 -2.12132
vt 155.39224 -1.14805
vt 155.24001 0
vt 155.24001 23.5
vt 155.39224 24.64805
vt 155.82579 25.62132
vt 156.47464 26.27164
vt 157.24001 26.5
vt 79.2 -3
vt 78.43463 -2.77164
vt 77.78579 -2.12132
vt 77.35224 -1.14805
vt 77.2 0
vt 77.2 23.5
vt 77.35224 24.64805
vt 77.78579 25.62132
vt 78.43463 26.27164
vt 79.2 26.5
vt 588.85999 -3
vt 589.62537 -2.77164
vt 590.27423 -2.12132
vt 590.70776 -1.14805
vt 590.85999 0
vt 590.85999 23.5
vt 590.70776 24.64805
vt 590.27423 25.62132
vt 589.62537 26.27164
vt 588.85999 26.5
vt 431.26001 -3
vt 430.49286 -2.77164
vt 429.8425 -2.12132
vt 429.40793 -1.14805
vt 429.25534 0
vt 429.25534 23.5
vt 429.40793 24.64805
vt 429.8425 25.62132
vt 430.49286 26.27164
vt 431.26001 26.5
vt 157.17999 -3
vt 276.00357 -2.77164
vt 156.41022 -2.77164
vt 276.65091 -2.12132
vt 155.75761 -2.12132
vt 277.08344 -1.14805
vt 155.32156 -1.14805
vt 277.23532 0
vt 155.16844 0
vt 277.23532 23.5
vt 155.16844 23.5
vt 277.08344 24.64805
vt 155.32156 24.64805
vt 276.65091 25.62132
vt 155.75761 25.62132
vt 276.00357 26.27164
vt 156.41022 26.27164
vt 157.17999 26.5
vt 431.81 -3
vt 509.78 -3
vt 431.04907 -2.77164
vt 510.54538 -2.77164
vt 430.40399 -2.12132
vt 511.19421 -2.12132
vt 429.97296 -1.14805
vt 511.62775 -1.14805
vt 429.82162 0
vt 511.78 0
vt 429.82162 23.5
vt 511.78 23.5
vt 429.97296 24.64805
vt 511.62775 24.64805
vt 430.40399 25.62132
vt 511.19421 25.62132
vt 431.04907 26.27164
vt 510.54538 26.27164
vt 431.81 26.5
vt 509.78 26.5
vt 157.72 -3
vt 196.71001 -3
vt 156.95992 -2.77164
vt 197.46449 -2.77164
vt 156.31555 -2.12132
vt 198.10413 -2.12132
vt 155.88499 -1.14805
vt 198.53151 -1.14805
vt 155.73381 0
vt 198.68159 0
vt 155.73381 23.5
vt 198.68159 23.5
vt 155.88499 24.64805
vt 198.53151 24.64805
vt 156.31555 25.62132
vt 198.10413 25.62132
vt 156.95992 26.27164
vt 197.46449 26.27164
vt 157.72 26.5
vt 196.71001 26.5
vt 471.34 -3
vt 472.10538 -2.77164
vt 472.75421 -2.12132
vt 473.18774 -1.14805
vt 473.34 0
vt 473.34 23.5
vt 473.18774 24.64805
vt 472.75421 25.62132
vt 472.10538 26.27164
vt 471.34 26.5
vt 197.25999 -3
vt 236.25 -3
vt 198.0145 -2.77164
vt 235.48463 -2.77164
vt 198.65413 -2.12132
vt 234.83578 -2.12132
vt 199.08151 -1.14805
vt 234.40224 -1.14805
vt 199.23158 0
vt 234.25 0
vt 199.23158 23.5
vt 234.25 23.5
vt 199.08151 24.64805
vt 234.40224 24.64805
vt 198.65413 25.62132
vt 234.83578 25.62132
vt 198.0145 26.27164
vt 235.48463 26.27164
vt 197.25999 26.5
vt 236.25 26.5
vt 548.77002 -3
vt 548.01178 -2.77164
vt 547.36902 -2.12132
vt 546.93951 -1.14805
vt 546.7887 0
vt 546.7887 23.5
vt 546.93951 24.64805
vt 547.36902 25.62132
vt 548.01178 26.27164
vt 548.77002 26.5
vt 119.28 -3
vt 120.04043 -2.77164
vt 120.6851 -2.12132
vt 121.11584 -1.14805
vt 121.26711 0
vt 121.26711 23.5
vt 121.11584 24.64805
vt 120.6851 25.62132
vt 120.04043 26.27164
vt 119.28 26.5
vt 549.87 -3
vt 393.37 -3
vt 549.09973 -2.77164
vt 394.13403 -2.77164
vt 548.44672 -2.12132
vt 394.78177 -2.12132
vt 548.01038 -1.14805
vt 395.21457 -1.14805
vt 547.85718 0
vt 395.36655 0
vt 547.85718 23.5
vt 395.36655 23.5
vt 548.01038 24.64805
vt 395.21457 24.64805
vt 548.44672 25.62132
vt 394.78177 25.62132
vt 549.09973 26.27164
vt 394.13403 26.27164
vt 549.87 26.5
vt 393.37 26.5
vt 118.74 -3
vt 119.50668 -2.77164
vt 120.15665 -2.12132
vt 120.59094 -1.14805
vt 120.74345 0
vt 120.74345 23.5
vt 120.59094 24.64805
vt 120.15665 25.62132
vt 119.50668 26.27164
vt 118.74 26.5
vt 354.38 -3
vt 394.13538 -2.77164
vt 353.61731 -2.77164
vt 394.78421 -2.12132
vt 352.97073 -2.12132
vt 395.21777 -1.14805
vt 352.53873 -1.14805
vt 395.37 0
vt 352.38702 0
vt 395.37 23.5
vt 352.38702 23.5
vt 395.21777 24.64805
vt 352.53873 24.64805
vt 394.78421 25.62132
vt 352.97073 25.62132
vt 394.13538 26.27164
vt 353.61731 26.27164
vt 354.38 26.5
vt 119.50536 -2.77164
vt 120.15421 -2.12132
vt 120.58776 -1.14805
vt 120.74 0
vt 120.74 23.5
vt 120.58776 24.64805
vt 120.15421 25.62132
vt 119.50536 26.27164
vt 353.82999 -3
vt 196.77 -3
vt 353.06732 -2.77164
vt 197.53177 -2.77164
vt 352.42075 -2.12132
vt 198.17758 -2.12132
vt 351.98871 -1.14805
vt 198.60909 -1.14805
vt 351.83701 0
vt 198.76062 0
vt 351.83701 23.5
vt 198.76062 23.5
vt 351.98871 24.64805
vt 198.60909 24.64805
vt 352.42075 25.62132
vt 198.17758 25.62132
vt 353.06732 26.27164
vt 197.53177 26.27164
vt 353.82999 26.5
vt 196.77 26.5
vt 235.7 -3
vt 234.94 -2.77164
vt 234.2957 -2.12132
vt 233.8652 -1.14805
vt 233.71402 0
vt 233.71402 23.5
vt 233.8652 24.64805
vt 234.2957 25.62132
vt 234.94 26.27164
vt 235.7 26.5
vt 196.22 -3
vt 274.75 -3
vt 196.98895 -2.77164
vt 273.99487 -2.77164
vt 197.64084 -2.12132
vt 273.35468 -2.12132
vt 198.0764 -1.14805
vt 272.92694 -1.14805
vt 198.22935 0
vt 272.77673 0
vt 198.22935 23.5
vt 272.77673 23.5
vt 198.0764 24.64805
vt 272.92694 24.64805
vt 197.64084 25.62132
vt 273.35468 25.62132
vt 196.98895 26.27164
vt 273.99487 26.27164
vt 196.22 26.5
vt 274.75 26.5
vt 235.47932 -2.77164
vt 195.83025 -2.77164
vt 234.82597 -2.12132
vt 196.47473 -2.12132
vt 234.38943 -1.14805
vt 196.90538 -1.14805
vt 234.23613 0
vt 197.05659 0
vt 234.23613 23.5
vt 197.05659 23.5
vt 234.38943 24.64805
vt 196.90538 24.64805
vt 234.82597 25.62132
vt 196.47473 25.62132
vt 235.47932 26.27164
vt 195.83025 26.27164
vt 275.29999 -3
vt 274.52954 -2.77164
vt 273.87637 -2.12132
vt 273.43994 -1.14805
vt 273.28668 0
vt 273.28668 23.5
vt 273.43994 24.64805
vt 273.87637 25.62132
vt 274.52954 26.27164
vt 275.29999 26.5
usemtl mat0
f 1/1/1 2/2/1 3/3/1
f 4/4/1 5/5/1 6/6/1
f 7/7/1 8/8/1 9/9/1
f 10/10/1 1/1/1 3/3/1
f 11/11/1 4/4/1 6/6/1
f 12/12/1 7/7/1 9/9/1
f 10/10/1 3/3/1 13/13/1
f 11/11/1 6/6/1 14/14/1
f 15/15/1 10/10/1 13/13/1
f 16/16/1 11/11/1 14/14/1
f 15/15/1 13/13/1 17/17/1
f 16/16/1 14/14/1 18/18/1
f 19/19/1 15/15/1 17/17/1
f 20/20/1 16/16/1 18/18/1
f 19/19/1 17/17/1 21/21/1
f 20/20/1 18/18/1 22/22/1
f 23/23/1 19/19/1 21/21/1
f 24/24/1 20/20/1 22/22/1
f 23/23/1 21/21/1 12/12/1
f 24/24/1 22/22/1 23/23/1
f 23/23/1 12/12/1 9/9/1
f 9/9/1 24/24/1 23/23/1
f 25/3/2 26/2/2 27/1/2
f 28/6/2 29/5/2 30/4/2
f 31/9/2 32/8/2 33/7/2
f 25/3/2 27/1/2 34/10/2
f 28/6/2 30/4/2 35/11/2
f 31/9/2 33/7/2 36/12/2
f 37/13/2 25/3/2 34/10/2
f 38/14/2 28/6/2 35/11/2
f 37/13/2 34/10/2 39/15/2
f 38/14/2 35/11/2 40/16/2
f 41/17/2 37/13/2 39/15/2
f 42/18/2 38/14/2 40/16/2
f 41/17/2 39/15/2 43/19/2
f 42/18/2 40/16/2 44/20/2
f 45/21/2 41/17/2 43/19/2
f 46/22/2 42/18/2 44/20/2
f 45/21/2 43/19/2 47/23/2
f 46/22/2 44/20/2 48/24/2
f 36/12/2 45/21/2 47/23/2
f 47/23/2 46/22/2 48/24/2
f 31/9/2 36/12/2 47/23/2
f 47/23/2 48/24/2 31/9/2
f 49/25/3 50/26/3 51/27/3
f 50/26/3 52/28/3 51/27/3
f 51/27/4 52/28/4 53/29/4
f 52/28/4 54/30/4 53/29/4
f 53/29/5 54/30/5 55/31/5
f 54/30/5 56/32/5 55/31/5
f 55/31/6 56/32/6 57/33/6
f 56/32/6 58/34/6 57/33/6
f 57/33/7 58/34/7 59/35/7
f 58/34/7 60/36/7 59/35/7
f 59/35/8 60/36/8 61/37/8
f 60/36/8 62/38/8 61/37/8
f 61/37/9 62/38/9 63/39/9
f 62/38/10 64/40/10 63/39/10
f 63/39/11 64/40/11 65/41/11
f 64/40/12 66/42/12 65/41/12
f 65/41/13 66/42/13 67/43/13
f 66/42/14 68/44/14 67/43/14
f 69/45/15 70/46/15 71/47/15
f 70/46/16 72/48/16 71/47/16
f 71/47/17 72/48/17 73/49/17
f 72/48/18 74/50/18 73/49/18
f 73/49/19 74/50/19 75/51/19
f 74/50/20 76/52/20 75/51/20
f 75/51/21 76/52/21 77/53/21
f 76/52/21 78/54/21 77/53/21
f 77/53/22 78/54/22 79/55/22
f 78/54/22 80/56/22 79/55/22
f 79/55/23 80/56/23 81/57/23
f 80/56/23 82/58/23 81/57/23
f 81/57/24 82/58/24 83/59/24
f 82/58/25 84/60/25 83/59/25
f 83/59/26 84/60/26 85/61/26
f 84/60/27 86/62/27 85/61/27
f 85/61/28 86/62/28 87/63/28
f 86/62/28 88/64/28 87/63/28
f 89/26/29 90/65/29 91/28/29
f 90/65/29 92/66/29 91/28/29
f 91/28/30 92/66/30 93/30/30
f 92/66/31 94/67/31 93/30/31
f 93/30/32 94/67/32 95/32/32
f 94/67/32 96/68/32 95/32/32
f 95/32/33 96/68/33 97/34/33
f 96/68/34 98/69/34 97/34/34
f 97/34/35 98/69/35 99/36/35
f 98/69/35 100/70/35 99/36/35
f 99/36/36 100/70/36 101/38/36
f 100/70/37 102/71/37 101/38/37
f 101/38/38 102/71/38 103/40/38
f 102/71/38 104/72/38 103/40/38
f 103/40/39 104/72/39 105/42/39
f 104/72/39 106/73/39 105/42/39
f 105/42/40 106/73/40 107/44/40
f 106/73/41 108/74/41 107/44/41
f 109/46/42 110/75/42 111/48/42
f 110/75/43 112/76/43 111/48/43
f 111/48/44 112/76/44 113/50/44
f 112/76/44 114/77/44 113/50/44
f 113/50/45 114/77/45 115/52/45
f 114/77/46 116/78/46 115/52/46
f 115/52/47 116/78/47 117/54/47
f 116/78/48 118/79/48 117/54/48
f 117/54/49 118/79/49 119/56/49
f 118/79/49 120/80/49 119/56/49
f 119/56/50 120/80/50 121/58/50
f 120/80/51 122/81/51 121/58/51
f 121/58/52 122/81/52 123/60/52
f 122/81/52 124/82/52 123/60/52
f 123/60/53 124/82/53 125/62/53
f 124/82/53 126/83/53 125/62/53
f 125/62/54 126/83/54 127/64/54
f 126/83/54 128/84/54 127/64/54
f 129/65/55 130/85/55 131/66/55
f 130/85/55 132/86/55 131/66/55
f 131/66/56 132/86/56 133/67/56
f 132/86/56 134/87/56 133/67/56
f 133/67/57 134/87/57 135/68/57
f 134/87/57 136/88/57 135/68/57
f 135/68/58 136/88/58 137/69/58
f 136/88/59 138/89/59 137/69/59
f 137/69/7 138/89/7 139/70/7
f 138/89/7 140/90/7 139/70/7
f 139/70/60 140/90/60 141/71/60
f 140/90/61 142/91/61 141/71/61
f 141/71/62 142/91/62 143/72/62
f 142/91/63 144/92/63 143/72/63
f 143/72/11 144/92/11 145/73/11
f 144/92/64 146/93/64 145/73/64
f 145/73/13 146/93/13 147/74/13
f 146/93/13 148/94/13 147/74/13
f 149/75/15 150/95/15 151/76/15
f 150/95/15 152/96/15 151/76/15
f 151/76/65 152/96/65 153/77/65
f 152/96/66 154/97/66 153/77/66
f 153/77/67 154/97/67 155/78/67
f 154/97/67 156/98/67 155/78/67
f 155/78/68 156/98/68 157/79/68
f 156/98/69 158/99/69 157/79/69
f 157/79/22 158/99/22 159/80/22
f 158/99/22 160/100/22 159/80/22
f 159/80/70 160/100/70 161/81/70
f 160/100/71 162/101/71 161/81/71
f 161/81/72 162/101/72 163/82/72
f 162/101/72 164/102/72 163/82/72
f 163/82/73 164/102/73 165/83/73
f 164/102/73 166/103/73 165/83/73
f 165/83/28 166/103/28 167/84/28
f 166/103/28 168/104/28 167/84/28
f 169/85/74 170/65/74 171/86/74
f 170/65/74 172/66/74 171/86/74
f 171/86/30 172/66/30 173/87/30
f 172/66/75 174/67/75 173/87/75
f 173/87/32 174/67/32 175/88/32
f 174/67/32 176/68/32 175/88/32
f 175/88/76 176/68/76 177/89/76
f 176/68/77 178/69/77 177/89/77
f 177/89/35 178/69/35 179/90/35
f 178/69/35 180/70/35 179/90/35
f 179/90/78 180/70/78 181/91/78
f 180/70/79 182/71/79 181/91/79
f 181/91/38 182/71/38 183/92/38
f 182/71/38 184/72/38 183/92/38
f 183/92/39 184/72/39 185/93/39
f 184/72/80 186/73/80 185/93/80
f 185/93/81 186/73/81 187/94/81
f 186/73/81 188/74/81 187/94/81
f 189/95/43 190/105/43 191/96/43
f 190/105/82 192/106/82 191/96/82
f 191/96/83 192/106/83 193/97/83
f 192/106/84 194/107/84 193/97/84
f 193/97/85 194/107/85 195/98/85
f 194/107/86 196/108/86 195/98/86
f 195/98/87 196/108/87 197/99/87
f 196/108/88 198/109/88 197/99/88
f 197/99/89 198/109/89 199/100/89
f 198/109/89 200/110/89 199/100/89
f 199/100/90 200/110/90 201/101/90
f 200/110/91 202/111/91 201/101/91
f 201/101/92 202/111/92 203/102/92
f 202/111/93 204/112/93 203/102/93
f 203/102/94 204/112/94 205/103/94
f 204/112/95 206/113/95 205/103/95
f 205/103/96 206/113/96 207/104/96
f 206/113/97 208/114/97 207/104/97
f 209/65/98 210/115/98 211/116/98
f 210/115/99 212/117/99 211/116/99
f 211/116/100 212/117/100 213/118/100
f 212/117/101 214/119/101 213/118/101
f 213/118/102 214/119/102 215/120/102
f 214/119/103 216/121/103 215/120/103
f 215/120/104 216/121/104 217/122/104
f 216/121/105 218/123/105 217/122/105
f 217/122/106 218/123/106 219/124/106
f 218/123/106 220/125/106 219/124/106
f 219/124/107 220/125/107 221/126/107
f 220/125/108 222/127/108 221/126/108
f 221/126/109 222/127/109 223/128/109
f 222/127/110 224/129/110 223/128/110
f 223/128/111 224/129/111 225/130/111
f 224/129/112 226/131/112 225/130/112
f 225/130/113 226/131/113 227/74/113
f 226/131/114 228/132/114 227/74/114
f 229/133/115 230/134/115 231/135/115
f 230/134/116 232/136/116 231/135/116
f 231/135/117 232/136/117 233/137/117
f 232/136/118 234/138/118 233/137/118
f 233/137/119 234/138/119 235/139/119
f 234/138/120 236/140/120 235/139/120
f 235/139/121 236/140/121 237/141/121
f 236/140/122 238/142/122 237/141/122
f 237/141/123 238/142/123 239/143/123
f 238/142/123 240/144/123 239/143/123
f 239/143/124 240/144/124 241/145/124
f 240/144/125 242/146/125 241/145/125
f 241/145/126 242/146/126 243/147/126
f 242/146/127 244/148/127 243/147/127
f 243/147/128 244/148/128 245/149/128
f 244/148/129 246/150/129 245/149/129
f 245/149/130 246/150/130 247/151/130
f 246/150/131 248/152/131 247/151/131
f 249/153/132 250/154/132 251/155/132
f 250/154/74 252/156/74 251/155/74
f 251/155/133 252/156/133 253/157/133
f 252/156/133 254/158/133 253/157/133
f 253/157/134 254/158/134 255/159/134
f 254/158/32 256/160/32 255/159/32
f 255/159/33 256/160/33 257/161/33
f 256/160/33 258/162/33 257/161/33
f 257/161/35 258/162/35 259/163/35
f 258/162/35 260/164/35 259/163/35
f 259/163/37 260/164/37 261/165/37
f 260/164/37 262/166/37 261/165/37
f 261/165/135 262/166/135 263/167/135
f 262/166/136 264/168/136 263/167/136
f 263/167/137 264/168/137 265/169/137
f 264/168/137 266/170/137 265/169/137
f 265/169/81 266/170/81 267/171/81
f 266/170/81 268/172/81 267/171/81
f 269/134/138 270/173/138 271/136/138
f 270/173/139 272/174/139 271/136/139
f 271/136/140 272/174/140 273/138/140
f 272/174/140 274/175/140 273/138/140
f 273/138/141 274/175/141 275/140/141
f 274/175/141 276/176/141 275/140/141
f 275/140/142 276/176/142 277/142/142
f 276/176/143 278/177/143 277/142/143
f 277/142/144 278/177/144 279/144/144
f 278/177/144 280/178/144 279/144/144
f 279/144/145 280/178/145 281/146/145
f 280/178/146 282/179/146 281/146/146
f 281/146/147 282/179/147 283/148/147
f 282/179/147 284/180/147 283/148/147
f 283/148/148 284/180/148 285/150/148
f 284/180/148 286/181/148 285/150/148
f 285/150/149 286/181/149 287/152/149
f 286/181/150 288/182/150 287/152/150
f 289/183/132 290/184/132 291/185/132
f 290/184/74 292/186/74 291/185/74
f 291/185/133 292/186/133 293/187/133
f 292/186/133 294/188/133 293/187/133
f 293/187/32 294/188/32 295/189/32
f 294/188/134 296/190/134 295/189/134
f 295/189/33 296/190/33 297/191/33
f 296/190/151 298/192/151 297/191/151
f 297/191/35 298/192/35 299/193/35
f 298/192/35 300/194/35 299/193/35
f 299/193/152 300/194/152 301/195/152
f 300/194/37 302/196/37 301/195/37
f 301/195/135 302/196/135 303/197/135
f 302/196/38 304/198/38 303/197/38
f 303/197/137 304/198/137 305/199/137
f 304/198/137 306/200/137 305/199/137
f 305/199/81 306/200/81 307/201/81
f 306/200/81 308/202/81 307/201/81
f 309/173/15 310/203/15 311/174/15
f 310/203/16 312/204/16 311/174/16
f 311/174/18 312/204/18 313/175/18
f 312/204/17 314/205/17 313/175/17
f 313/175/67 314/205/67 315/176/67
f 314/205/153 316/206/153 315/176/153
f 315/176/154 316/206/154 317/177/154
f 316/206/155 318/207/155 317/177/155
f 317/177/22 318/207/22 319/178/22
f 318/207/22 320/208/22 319/178/22
f 319/178/156 320/208/156 321/179/156
f 320/208/157 322/209/157 321/179/157
f 321/179/158 322/209/158 323/180/158
f 322/209/72 324/210/72 323/180/72
f 323/180/27 324/210/27 325/181/27
f 324/210/26 326/211/26 325/181/26
f 325/181/159 326/211/159 327/182/159
f 326/211/28 328/212/28 327/182/28
f 329/184/160 330/213/160 331/186/160
f 330/213/161 332/214/161 331/186/161
f 331/186/162 332/214/162 333/188/162
f 332/214/163 334/215/163 333/188/163
f 333/188/164 334/215/164 335/190/164
f 334/215/165 336/216/165 335/190/165
f 335/190/166 336/216/166 337/192/166
f 336/216/167 338/217/167 337/192/167
f 337/192/168 338/217/168 339/194/168
f 338/217/168 340/218/168 339/194/168
f 339/194/169 340/218/169 341/196/169
f 340/218/170 342/219/170 341/196/170
f 341/196/171 342/219/171 343/198/171
f 342/219/172 344/220/172 343/198/172
f 343/198/173 344/220/173 345/200/173
f 344/220/174 346/221/174 345/200/174
f 345/200/175 346/221/175 347/202/175
f 346/221/176 348/222/176 347/202/176
f 349/223/177 350/224/177 351/225/177
f 350/224/178 352/226/178 351/225/178
f 351/225/179 352/226/179 353/227/179
f 352/226/180 354/228/180 353/227/180
f 353/227/181 354/228/181 355/229/181
f 354/228/182 356/230/182 355/229/182
f 355/229/183 356/230/183 357/231/183
f 356/230/184 358/232/184 357/231/184
f 357/231/185 358/232/185 359/233/185
f 358/232/185 360/234/185 359/233/185
f 359/233/186 360/234/186 361/235/186
f 360/234/187 362/236/187 361/235/187
f 361/235/188 362/236/188 363/237/188
f 362/236/189 364/238/189 363/237/189
f 363/237/190 364/238/190 365/239/190
f 364/238/191 366/240/191 365/239/191
f 365/239/192 366/240/192 367/241/192
f 366/240/193 368/242/193 367/241/193
f 369/243/194 370/65/194 371/244/194
f 370/65/195 372/66/195 371/244/195
f 371/244/196 372/66/196 373/245/196
f 372/66/197 374/67/197 373/245/197
f 373/245/198 374/67/198 375/246/198
f 374/67/199 376/68/199 375/246/199
f 375/246/200 376/68/200 377/247/200
f 376/68/201 378/69/201 377/247/201
f 377/247/202 378/69/202 379/248/202
f 378/69/202 380/70/202 379/248/202
f 379/248/203 380/70/203 381/249/203
f 380/70/204 382/71/204 381/249/204
f 381/249/205 382/71/205 383/250/205
f 382/71/206 384/72/206 383/250/206
f 383/250/207 384/72/207 385/251/207
f 384/72/208 386/73/208 385/251/208
f 385/251/209 386/73/209 387/252/209
f 386/73/81 388/74/81 387/252/81
f 389/224/43 390/253/43 391/254/43
f 390/253/43 392/255/43 391/254/43
f 391/254/44 392/255/44 393/256/44
f 392/255/44 394/257/44 393/256/44
f 393/256/46 394/257/46 395/258/46
f 394/257/210 396/259/210 395/258/210
f 395/258/48 396/259/48 397/260/48
f 396/259/48 398/261/48 397/260/48
f 397/260/49 398/261/49 399/262/49
f 398/261/49 400/263/49 399/262/49
f 399/262/50 400/263/50 401/264/50
f 400/263/50 402/265/50 401/264/50
f 401/264/211 402/265/211 403/266/211
f 402/265/52 404/267/52 403/266/52
f 403/266/53 404/267/53 405/268/53
f 404/267/53 406/269/53 405/268/53
f 405/268/54 406/269/54 407/242/54
f 406/269/54 408/270/54 407/242/54
f 409/65/212 410/243/212 411/66/212
f 410/243/213 412/271/213 411/66/213
f 411/66/214 412/271/214 413/67/214
f 412/271/215 414/272/215 413/67/215
f 413/67/216 414/272/216 415/68/216
f 414/272/217 416/273/217 415/68/217
f 415/68/218 416/273/218 417/69/218
f 416/273/219 418/274/219 417/69/219
f 417/69/220 418/274/220 419/70/220
f 418/274/220 420/275/220 419/70/220
f 419/70/221 420/275/221 421/71/221
f 420/275/222 422/276/222 421/71/222
f 421/71/223 422/276/223 423/72/223
f 422/276/224 424/277/224 423/72/224
f 423/72/225 424/277/225 425/73/225
f 424/277/226 426/278/226 425/73/226
f 425/73/227 426/278/227 427/74/227
f 426/278/228 428/252/228 427/74/228
f 429/279/229 430/280/229 431/281/229
f 430/280/230 432/282/230 431/281/230
f 431/281/231 432/282/231 433/283/231
f 432/282/232 434/284/232 433/283/232
f 433/283/233 434/284/233 435/285/233
f 434/284/233 436/286/233 435/285/233
f 435/285/234 436/286/234 437/287/234
f 436/286/234 438/288/234 437/287/234
f 437/287/49 438/288/49 439/289/49
f 438/288/49 440/290/49 439/289/49
f 439/289/235 440/290/235 441/291/235
f 440/290/235 442/292/235 441/291/235
f 441/291/236 442/292/236 443/293/236
f 442/292/236 444/294/236 443/293/236
f 443/293/237 444/294/237 445/295/237
f 444/294/238 446/296/238 445/295/238
f 445/295/239 446/296/239 447/297/239
f 446/296/240 448/298/240 447/297/240
f 449/243/241 450/299/241 451/271/241
f 450/299/242 452/300/242 451/271/242
f 451/271/243 452/300/243 453/272/243
f 452/300/244 454/301/244 453/272/244
f 453/272/245 454/301/245 455/273/245
f 454/301/246 456/302/246 455/273/246
f 455/273/247 456/302/247 457/274/247
f 456/302/248 458/303/248 457/274/248
f 457/274/249 458/303/249 459/275/249
f 458/303/249 460/304/249 459/275/249
f 459/275/250 460/304/250 461/276/250
f 460/304/251 462/305/251 461/276/251
f 461/276/252 462/305/252 463/277/252
f 462/305/253 464/306/253 463/277/253
f 463/277/254 464/306/254 465/278/254
f 464/306/255 466/307/255 465/278/255
f 465/278/256 466/307/256 467/252/256
f 466/307/257 468/308/257 467/252/257
f 469/309/258 470/310/258 471/311/258
f 470/310/259 472/312/259 471/311/259
f 471/311/260 472/312/260 473/313/260
f 472/312/261 474/314/261 473/313/261
f 473/313/262 474/314/262 475/315/262
f 474/314/263 476/316/263 475/315/263
f 475/315/264 476/316/264 477/317/264
f 476/316/265 478/318/265 477/317/265
f 477/317/266 478/318/266 479/319/266
f 478/318/266 480/320/266 479/319/266
f 479/319/267 480/320/267 481/321/267
f 480/320/268 482/322/268 481/321/268
f 481/321/269 482/322/269 483/323/269
f 482/322/270 484/324/270 483/323/270
f 483/323/271 484/324/271 485/325/271
f 484/324/272 486/326/272 485/325/272
f 485/325/273 486/326/273 487/327/273
f 486/326/274 488/328/274 487/327/274
f 489/184/275 490/25/275 491/329/275
f 490/25/276 492/330/276 491/329/276
f 491/329/277 492/330/277 493/331/277
f 492/330/278 494/332/278 493/331/278
f 493/331/279 494/332/279 495/333/279
f 494/332/280 496/334/280 495/333/280
f 495/333/281 496/334/281 497/335/281
f 496/334/282 498/336/282 497/335/282
f 497/335/283 498/336/283 499/337/283
f 498/336/283 500/338/283 499/337/283
f 499/337/284 500/338/284 501/339/284
f 500/338/285 502/340/285 501/339/285
f 501/339/286 502/340/286 503/341/286
f 502/340/287 504/342/287 503/341/287
f 503/341/288 504/342/288 505/343/288
f 504/342/289 506/344/289 505/343/289
f 505/343/290 506/344/290 507/202/290
f 506/344/291 508/43/291 507/202/291
f 509/345/292 510/45/292 511/346/292
f 510/45/293 512/47/293 511/346/293
f 511/346/294 512/47/294 513/347/294
f 512/47/295 514/49/295 513/347/295
f 513/347/296 514/49/296 515/348/296
f 514/49/297 516/51/297 515/348/297
f 515/348/298 516/51/298 517/349/298
f 516/51/299 518/53/299 517/349/299
f 517/349/300 518/53/300 519/350/300
f 518/53/300 520/55/300 519/350/300
f 519/350/301 520/55/301 521/351/301
f 520/55/302 522/57/302 521/351/302
f 521/351/303 522/57/303 523/352/303
f 522/57/304 524/59/304 523/352/304
f 523/352/305 524/59/305 525/353/305
f 524/59/306 526/61/306 525/353/306
f 525/353/307 526/61/307 527/354/307
f 526/61/239 528/63/239 527/354/239
# Vertices: 528, normals: 307, texture coordinates: 354, faces: 476

